<svg width="124" height="39" fill="none" xmlns="http://www.w3.org/2000/svg"><path d="M59.232 25.8h-9.1L48.396 30h-4.648l8.736-19.6h4.48L65.728 30h-4.76l-1.736-4.2zm-1.428-3.444l-3.108-7.504-3.108 7.504h6.216zm16.117 1.736l-2.1 2.072V30h-4.367V9.224h4.368v11.76l6.383-6.048h5.209L77.14 21.32 83.973 30h-5.291l-4.76-5.908zm21.173-9.38c1.867 0 3.37.56 4.508 1.68 1.157 1.12 1.736 2.781 1.736 4.984V30H96.97v-7.952c0-1.195-.261-2.081-.784-2.66-.523-.597-1.279-.896-2.268-.896-1.102 0-1.979.345-2.632 1.036-.654.672-.98 1.68-.98 3.024V30h-4.368V9.224h4.368v7.28a5.658 5.658 0 012.1-1.316c.821-.317 1.717-.476 2.688-.476zm14.375 2.212c.523-.728 1.223-1.279 2.1-1.652.896-.373 1.923-.56 3.08-.56v4.032a15.778 15.778 0 00-.98-.056c-1.25 0-2.23.355-2.94 1.064-.709.69-1.064 1.736-1.064 3.136V30h-4.368V14.936h4.172v1.988zm7.777-1.988h4.368V30h-4.368V14.936zm2.184-2.1c-.802 0-1.456-.233-1.96-.7a2.27 2.27 0 01-.756-1.736c0-.69.252-1.27.756-1.736.504-.467 1.158-.7 1.96-.7.803 0 1.456.224 1.96.672.504.448.756 1.008.756 1.68 0 .728-.252 1.335-.756 1.82-.504.467-1.157.7-1.96.7z" fill="#fff"/><path fill-rule="evenodd" clip-rule="evenodd" d="M12.5 32C5.596 32 0 26.404 0 19.5S5.596 7 12.5 7c3.566 0 6.784 1.493 9.06 3.889L23.612 7l5.417 9.444-1.806 3.056c1.398 2.925 2.566 3.551 5.278 2.917l4.583 7.916c-6.54 2.33-10.185 2.389-15.522-2.222A12.465 12.465 0 0112.5 32zm.139-9.167c1.764 0 3.194-1.527 3.75-3.194-.695-1.667-1.986-3.195-3.75-3.195a3.194 3.194 0 100 6.39z" fill="url(#paint0_radial_242_1513)"/><defs><radialGradient id="paint0_radial_242_1513" cx="0" cy="0" r="1" gradientUnits="userSpaceOnUse" gradientTransform="rotate(-44.108 43.383 6.4) scale(31.529 46.768)"><stop stop-color="#C391ED"/><stop offset="1" stop-color="#4AD0E5"/></radialGradient></defs></svg>