<svg width="1210" height="1210" fill="none" xmlns="http://www.w3.org/2000/svg"><rect width="1210" height="1210" rx="199" fill="#fff"/><path fill="#144BC3" d="M0 0h1210v605H0z"/><path fill="#FBCE14" d="M0 605h1210v605H0z"/><g clip-path="url(#clip0_1511_249)" fill="#000"><path d="M884.504 731.829L994.989 299.22h120.871v-68H942.174L916.128 333.2 213 332.697l74.753 399.129h596.751v.003zm14.262-330.641l-67.077 262.64h-487.49l-49.271-263.072 603.838.432zM791.418 979.641c59.961 0 108.743-48.783 108.743-108.744s-48.782-108.742-108.743-108.742H381.717c-59.961 0-108.744 48.781-108.744 108.742 0 59.961 48.782 108.744 108.744 108.744S490.46 930.858 490.46 870.897c0-14.4-2.821-28.152-7.927-40.742h208.069c-5.107 12.59-7.928 26.342-7.928 40.742.001 59.961 48.783 108.744 108.744 108.744zM422.46 870.897c0 22.467-18.277 40.744-40.743 40.744s-40.744-18.277-40.744-40.744c0-22.465 18.277-40.742 40.744-40.742 22.466 0 40.743 18.277 40.743 40.742zm409.702 0c0 22.467-18.277 40.744-40.743 40.744s-40.743-18.277-40.743-40.744c0-22.465 18.277-40.742 40.743-40.742s40.743 18.277 40.743 40.742z"/></g><defs><clipPath id="clip0_1511_249"><path fill="#fff" transform="translate(213 154)" d="M0 0h902.86v902.86H0z"/></clipPath></defs></svg>