<svg width="1210" height="1210" viewBox="0 0 1210 1210" fill="none" xmlns="http://www.w3.org/2000/svg">
<rect width="1210" height="1210" rx="199" fill="white"/>
<rect width="1210" height="605" fill="#144BC3"/>
<rect y="605" width="1210" height="605" fill="#FBCE14"/>
<g clip-path="url(#clip0_1511_249)">
<path d="M884.504 731.829L994.989 299.22H1115.86V231.22H942.174L916.128 333.2L213 332.697L287.753 731.826H884.504V731.829ZM898.766 401.188L831.689 663.828H344.199L294.928 400.756L898.766 401.188Z" fill="black"/>
<path d="M791.418 979.641C851.379 979.641 900.161 930.858 900.161 870.897C900.161 810.936 851.379 762.155 791.418 762.155H381.717C321.756 762.155 272.973 810.936 272.973 870.897C272.973 930.858 321.755 979.641 381.717 979.641C441.679 979.641 490.46 930.858 490.46 870.897C490.46 856.497 487.639 842.745 482.533 830.155H690.602C685.495 842.745 682.674 856.497 682.674 870.897C682.675 930.858 731.457 979.641 791.418 979.641ZM422.46 870.897C422.46 893.364 404.183 911.641 381.717 911.641C359.251 911.641 340.973 893.364 340.973 870.897C340.973 848.432 359.25 830.155 381.717 830.155C404.183 830.155 422.46 848.432 422.46 870.897ZM832.162 870.897C832.162 893.364 813.885 911.641 791.419 911.641C768.953 911.641 750.676 893.364 750.676 870.897C750.676 848.432 768.953 830.155 791.419 830.155C813.885 830.155 832.162 848.432 832.162 870.897Z" fill="black"/>
</g>
<defs>
<clipPath id="clip0_1511_249">
<rect width="902.86" height="902.86" fill="white" transform="translate(213 154)"/>
</clipPath>
</defs>
</svg>
