<svg width="124" height="39" viewBox="0 0 124 39" fill="none" xmlns="http://www.w3.org/2000/svg">
<path d="M59.232 25.8H50.132L48.396 30H43.748L52.484 10.4H56.964L65.728 30H60.968L59.232 25.8ZM57.804 22.356L54.696 14.852L51.588 22.356H57.804ZM73.9215 24.092L71.8215 26.164V30H67.4535V9.224H71.8215V20.984L78.2055 14.936H83.4135L77.1415 21.32L83.9735 30H78.6815L73.9215 24.092ZM95.0939 14.712C96.9605 14.712 98.4632 15.272 99.6019 16.392C100.759 17.512 101.338 19.1733 101.338 21.376V30H96.9699V22.048C96.9699 20.8533 96.7085 19.9667 96.1859 19.388C95.6632 18.7907 94.9072 18.492 93.9179 18.492C92.8165 18.492 91.9392 18.8373 91.2859 19.528C90.6325 20.2 90.3059 21.208 90.3059 22.552V30H85.9379V9.224H90.3059V16.504C90.8845 15.9253 91.5845 15.4867 92.4059 15.188C93.2272 14.8707 94.1232 14.712 95.0939 14.712ZM109.469 16.924C109.992 16.196 110.692 15.6453 111.569 15.272C112.465 14.8987 113.492 14.712 114.649 14.712V18.744C114.164 18.7067 113.837 18.688 113.669 18.688C112.419 18.688 111.439 19.0427 110.729 19.752C110.02 20.4427 109.665 21.488 109.665 22.888V30H105.297V14.936H109.469V16.924ZM117.246 14.936H121.614V30H117.246V14.936ZM119.43 12.836C118.628 12.836 117.974 12.6027 117.47 12.136C116.966 11.6693 116.714 11.0907 116.714 10.4C116.714 9.70933 116.966 9.13067 117.47 8.664C117.974 8.19733 118.628 7.964 119.43 7.964C120.233 7.964 120.886 8.188 121.39 8.636C121.894 9.084 122.146 9.644 122.146 10.316C122.146 11.044 121.894 11.6507 121.39 12.136C120.886 12.6027 120.233 12.836 119.43 12.836Z" fill="white"/>
<path fill-rule="evenodd" clip-rule="evenodd" d="M12.5 32C5.59644 32 0 26.4036 0 19.5C0 12.5964 5.59644 7 12.5 7C16.0662 7 19.2836 8.49338 21.5609 10.8889L23.6111 7L29.0278 16.4444L27.2222 19.5C28.6204 22.4255 29.7875 23.0513 32.5 22.4167L37.0833 30.3333C30.5429 32.663 26.8981 32.722 21.5609 28.1111C19.2836 30.5066 16.0662 32 12.5 32ZM12.6389 22.8333C14.4031 22.8333 15.8333 21.3055 16.3889 19.6388C15.6944 17.9722 14.4031 16.4444 12.6389 16.4444C10.8746 16.4444 9.44443 17.8746 9.44443 19.6388C9.44443 21.4031 10.8746 22.8333 12.6389 22.8333Z" fill="url(#paint0_radial_242_1513)"/>
<defs>
<radialGradient id="paint0_radial_242_1513" cx="0" cy="0" r="1" gradientUnits="userSpaceOnUse" gradientTransform="translate(7.77778 32) rotate(-44.1076) scale(31.529 46.768)">
<stop stop-color="#C391ED"/>
<stop offset="1" stop-color="#4AD0E5"/>
</radialGradient>
</defs>
</svg>
